<svg xmlns="http://www.w3.org/2000/svg" version="1.1" xmlns:xlink="http://www.w3.org/1999/xlink" xmlns:svgjs="http://svgjs.dev/svgjs" width="2000" height="668" viewBox="0 0 2000 668"><g transform="matrix(1,0,0,1,0.3398876404492057,0.23857142857139024)"><svg viewBox="0 0 356 119" data-background-color="#ffffff" preserveAspectRatio="xMidYMid meet" height="668" width="2000" xmlns="http://www.w3.org/2000/svg" xmlns:xlink="http://www.w3.org/1999/xlink"><g id="tight-bounds" transform="matrix(1,0,0,1,-0.06049999999996203,-0.04249999999998977)"><svg viewBox="0 0 356.12052 119.0847877250177" height="119.0847877250177" width="356.12052"><g><svg viewBox="0 0 356.12052 119.0847877250177" height="119.0847877250177" width="356.12052"><g><svg viewBox="0 0 356.12052 119.0847877250177" height="119.0847877250177" width="356.12052"><g><path d="M0 119.085v-119.085h356.121v119.085z" fill="#454545" stroke="transparent" stroke-width="0" rx="0%" data-fill-palette-color="tertiary"></path><path d="M3.283 115.802v-112.519h349.554v112.519z" fill="#fbeaab" stroke="transparent" stroke-width="0" rx="0%" data-fill-palette-color="quaternary"></path><path d="M9.85 109.235v-99.385h336.421v99.385z" fill="#454545" stroke="transparent" stroke-width="0" data-fill-palette-color="tertiary"></path></g><g transform="matrix(1,0,0,1,19.69974,19.69974)" id="textblocktransform"><svg viewBox="0 0 316.72104 79.68530772501771" height="79.68530772501771" width="316.72104" id="textblock"><g><svg viewBox="0 0 316.72104 79.68530772501771" height="79.68530772501771" width="316.72104"><g transform="matrix(1,0,0,1,0,0)"><svg width="316.72104" viewBox="3.549999952316284 -35 141.0800018310547 35.5" height="79.68530772501771" data-palette-color="#fbeaab"><path d="M15.7 0L3.55 0 3.55-34.5Q3.55-34.5 3.63-34.75 3.7-35 4.05-35L4.05-35 16-35Q16-34.5 16-34.25 16-34 15.93-33.9 15.85-33.8 15.7-33.8L15.7-33.8 4.75-33.8 4.75-1.2 16.1-1.2Q16.1-0.7 16.07-0.43 16.05-0.15 15.98-0.08 15.9 0 15.7 0L15.7 0ZM14.6-18.6L4.35-18.6 4.35-19.8 15-19.8Q15-19.05 14.95-18.82 14.9-18.6 14.6-18.6L14.6-18.6ZM28.4 0.5L28.4 0.5Q28.2 0.5 27.97-0.28 27.75-1.05 27.35-2.4L27.35-2.4Q26.75-4.55 25.85-7.7 24.95-10.85 23.92-14.45 22.9-18.05 21.87-21.55 20.85-25.05 20.02-27.95 19.2-30.85 18.7-32.58 18.2-34.3 18.2-34.3L18.2-34.3Q18.1-34.6 18.1-34.8 18.1-35 18.4-35L18.4-35 19.2-35 26.4-10.05Q26.95-8.3 27.32-6.88 27.7-5.45 28.02-4.15 28.35-2.85 28.65-1.35L28.65-1.35Q28.95-2.85 29.25-4.15 29.55-5.45 29.92-6.88 30.3-8.3 30.75-10.05L30.75-10.05 37.35-34.3Q37.45-34.6 37.52-34.8 37.6-35 37.85-35L37.85-35 38.7-35 29.05 0.45Q29.05 0.45 28.87 0.48 28.7 0.5 28.4 0.5ZM54.6 0L42.45 0 42.45-34.5Q42.45-34.5 42.52-34.75 42.6-35 42.95-35L42.95-35 54.9-35Q54.9-34.5 54.9-34.25 54.9-34 54.82-33.9 54.75-33.8 54.6-33.8L54.6-33.8 43.65-33.8 43.65-1.2 55-1.2Q55-0.7 54.97-0.43 54.95-0.15 54.87-0.08 54.8 0 54.6 0L54.6 0ZM53.5-18.6L43.25-18.6 43.25-19.8 53.9-19.8Q53.9-19.05 53.85-18.82 53.8-18.6 53.5-18.6L53.5-18.6ZM76.34 0L75.74 0 69.19-14.4Q69.19-14.4 68.59-15.75 67.99-17.1 67.02-19.25 66.04-21.4 64.97-23.8 63.89-26.2 62.92-28.35 61.94-30.5 61.34-31.85 60.74-33.2 60.74-33.2L60.74-33.2 60.29-34.15 60.64-35 61.24-35 67.64-20.85Q67.64-20.85 68.24-19.53 68.84-18.2 69.79-16.1 70.74-14 71.79-11.68 72.84-9.35 73.79-7.25 74.74-5.15 75.34-3.83 75.94-2.5 75.94-2.5L75.94-2.5 76.69-0.85 76.34 0ZM60.14 0L60.14 0 60.14-34.5Q60.14-35 60.64-35L60.64-35 61.34-34.5 61.34-33.45Q61.34-33.45 61.34-31.95 61.34-30.45 61.34-28.13 61.34-25.8 61.34-23.15 61.34-20.5 61.34-18.18 61.34-15.85 61.34-14.35 61.34-12.85 61.34-12.85L61.34-12.85 61.34-0.5Q61.34-0.25 61.29-0.15 61.24-0.05 60.99-0.03 60.74 0 60.14 0ZM76.34 0L76.34 0 75.64-0.5 75.64-1.85Q75.64-1.85 75.64-3.35 75.64-4.85 75.64-7.2 75.64-9.55 75.64-12.18 75.64-14.8 75.64-17.15 75.64-19.5 75.64-21 75.64-22.5 75.64-22.5L75.64-22.5 75.64-34.5Q75.64-34.75 75.69-34.85 75.74-34.95 75.99-34.98 76.24-35 76.84-35L76.84-35 76.84-0.5Q76.84 0 76.34 0ZM88.04 0L88.04 0 88.04-34.15Q88.04-34.15 88.12-34.4 88.19-34.65 88.54-34.65L88.54-34.65 88.74-34.65Q89.14-34.65 89.19-34.4 89.24-34.15 89.24-34.15L89.24-34.15 89.24-0.45Q89.24-0.25 89.19-0.15 89.14-0.05 88.89-0.03 88.64 0 88.04 0ZM96.99-33.8L79.99-33.8 79.99-34.5Q79.99-35 80.49-35L80.49-35 97.49-35 97.49-34.3Q97.49-34.1 97.39-33.95 97.29-33.8 96.99-33.8L96.99-33.8ZM106.04 0L106.04 0 106.04-34.15Q106.04-34.15 106.11-34.4 106.19-34.65 106.54-34.65L106.54-34.65 106.74-34.65Q107.14-34.65 107.19-34.4 107.24-34.15 107.24-34.15L107.24-34.15 107.24-0.45Q107.24-0.25 107.19-0.15 107.14-0.05 106.89-0.03 106.64 0 106.04 0ZM114.99-33.8L97.99-33.8 97.99-34.5Q97.99-35 98.49-35L98.49-35 115.49-35 115.49-34.3Q115.49-34.1 115.39-33.95 115.29-33.8 114.99-33.8L114.99-33.8ZM119.14 0L119.14 0 119.14-34.2Q119.14-34.6 119.19-34.77 119.24-34.95 119.51-34.98 119.79-35 120.39-35L120.39-35 120.39-0.5Q120.39-0.25 120.31-0.15 120.24-0.05 119.99-0.03 119.74 0 119.14 0ZM125.48 0L124.38 0 133.88-18.55 134.43-18.85Q134.43-18.85 135.13-20.33 135.83-21.8 136.91-24.03 137.98-26.25 139.08-28.55L139.08-28.55 142.08-34.75Q142.18-34.9 142.23-34.95 142.28-35 142.58-35 142.88-35 143.63-35L143.63-35 135.28-17.85 134.73-17.65Q134.73-17.65 134.08-16.32 133.43-15 132.38-12.9 131.33-10.8 130.13-8.5L130.13-8.5 125.93-0.2Q125.78 0 125.48 0L125.48 0ZM144.33 0L143.23 0 139.03-8.45Q137.88-10.8 136.83-12.9 135.78-15 135.11-16.32 134.43-17.65 134.43-17.65L134.43-17.65 133.93-17.95 125.73-34.75Q125.68-34.9 125.66-34.95 125.63-35 125.93-35 126.23-35 126.98-35L126.98-35 130.13-28.55Q131.28-26.2 132.33-23.98 133.38-21.75 134.06-20.33 134.73-18.9 134.73-18.9L134.73-18.9 135.13-18.55 144.58-0.45Q144.68-0.25 144.58-0.13 144.48 0 144.33 0L144.33 0Z" opacity="1" transform="matrix(1,0,0,1,0,0)" fill="#fbeaab" class="wordmark-text-0" data-fill-palette-color="quaternary" id="text-0"></path></svg></g></svg></g></svg></g></svg></g><g></g></svg></g><defs></defs></svg><rect width="356.12052" height="119.0847877250177" fill="none" stroke="none" visibility="hidden"></rect></g></svg></g></svg>